<svg id="svg" version="1.1" width="400" height="400" viewBox="0 0 400 400" xmlns="http://www.w3.org/2000/svg" xmlns:xlink="http://www.w3.org/1999/xlink" ><g id="svgg"><path id="path0" d="M196.200 96.649 C 134.510 103.207,104.604 174.406,143.213 222.800 C 165.373 250.576,204.635 259.463,237.000 244.027 C 282.241 222.451,295.388 164.560,263.987 125.200 C 248.217 105.433,221.081 94.004,196.200 96.649 M181.360 134.529 C 182.207 135.668,182.964 206.536,182.187 211.950 C 181.716 215.233,178.992 216.629,176.982 214.618 L 176.000 213.636 176.000 174.472 L 176.000 135.308 176.846 134.233 C 178.002 132.763,180.152 132.904,181.360 134.529 M169.571 152.654 C 170.871 154.307,170.871 194.493,169.571 196.146 C 168.111 198.002,165.242 197.445,164.442 195.149 C 163.847 193.442,163.825 155.323,164.418 153.726 C 165.298 151.356,168.093 150.775,169.571 152.654 M192.831 152.769 L 194.000 153.938 194.000 174.339 L 194.000 194.739 192.964 195.969 C 191.602 197.589,189.265 197.701,187.782 196.218 L 186.800 195.236 186.800 174.400 L 186.800 153.564 187.782 152.582 C 189.201 151.163,191.303 151.241,192.831 152.769 M214.618 152.582 L 215.600 153.564 215.600 174.400 L 215.600 195.236 214.618 196.218 C 213.381 197.456,211.317 197.522,209.854 196.371 L 208.800 195.542 208.800 174.553 L 208.800 153.564 209.782 152.582 C 211.118 151.246,213.282 151.246,214.618 152.582 M237.418 152.582 L 238.400 153.564 238.400 174.400 L 238.400 195.236 237.418 196.218 C 236.042 197.595,233.943 197.562,232.829 196.146 C 232.015 195.111,232.000 194.729,232.000 174.328 L 232.000 153.564 232.982 152.582 C 233.601 151.963,234.421 151.600,235.200 151.600 C 235.979 151.600,236.799 151.963,237.418 152.582 M203.745 162.655 L 204.800 163.709 204.800 174.036 C 204.800 184.983,204.655 185.973,202.937 186.756 C 201.449 187.434,200.842 187.303,199.569 186.031 L 198.400 184.862 198.400 174.650 C 198.400 163.975,198.558 162.837,200.146 162.068 C 201.576 161.375,202.640 161.549,203.745 162.655 M225.576 162.188 C 227.375 163.118,227.600 164.476,227.600 174.400 C 227.600 184.324,227.375 185.682,225.576 186.612 C 223.893 187.483,222.873 187.335,221.569 186.031 L 220.400 184.862 220.400 174.266 L 220.400 163.671 221.631 162.636 C 223.034 161.455,223.956 161.350,225.576 162.188 M249.171 162.654 C 249.962 163.660,250.000 164.190,250.000 174.285 L 250.000 184.862 248.790 186.072 C 247.429 187.432,246.060 187.397,244.600 185.964 C 243.794 185.173,243.113 166.795,243.790 164.097 C 244.427 161.558,247.633 160.698,249.171 162.654 M159.256 166.765 C 160.182 167.515,160.200 167.662,160.200 174.400 C 160.200 181.138,160.182 181.285,159.256 182.035 C 158.050 183.012,156.351 183.012,155.144 182.036 C 153.603 180.790,153.448 168.515,154.955 167.009 C 156.174 165.790,157.929 165.690,159.256 166.765 M259.074 166.870 C 260.466 168.178,260.512 180.403,259.130 181.874 C 257.977 183.101,256.242 183.078,254.982 181.818 C 254.021 180.857,254.000 180.700,254.000 174.400 C 254.000 166.394,255.771 163.766,259.074 166.870 M162.982 284.182 C 161.673 285.491,161.489 292.481,162.724 294.006 C 165.040 296.865,167.200 294.515,167.200 289.138 C 167.200 284.957,166.430 283.200,164.600 283.200 C 164.250 283.200,163.522 283.642,162.982 284.182 M176.744 283.965 C 175.506 284.967,175.285 293.057,176.464 294.236 C 177.416 295.188,179.211 295.074,180.076 294.006 C 180.964 292.908,181.040 291.200,180.200 291.200 C 179.829 291.200,179.600 291.576,179.600 292.186 C 179.600 293.514,178.287 294.230,177.428 293.371 C 176.528 292.471,176.529 285.929,177.429 285.029 C 178.424 284.033,179.600 284.603,179.600 286.080 C 179.600 286.476,179.870 286.800,180.200 286.800 C 181.133 286.800,180.910 285.274,179.818 284.182 C 178.636 283.000,177.992 282.955,176.744 283.965 M148.400 289.200 C 148.400 293.911,148.495 294.800,149.000 294.800 C 149.460 294.800,149.600 294.292,149.600 292.624 C 149.600 290.302,149.933 289.798,151.204 290.201 C 151.817 290.396,152.000 290.808,152.000 291.994 C 152.000 293.923,152.326 294.800,153.043 294.800 C 153.756 294.800,153.809 291.524,153.114 290.411 C 152.732 289.800,152.732 289.343,153.114 288.288 C 154.233 285.193,153.303 283.600,150.377 283.600 L 148.400 283.600 148.400 289.200 M189.600 289.200 C 189.600 292.667,189.752 294.800,190.000 294.800 C 190.408 294.800,190.540 294.301,190.432 293.164 C 190.145 290.145,191.899 290.031,192.926 293.001 C 193.231 293.880,193.779 294.659,194.146 294.731 C 194.738 294.846,194.717 294.623,193.961 292.731 C 192.229 288.393,192.245 288.684,193.580 286.039 C 194.548 284.122,194.681 283.600,194.201 283.600 C 193.864 283.600,193.188 284.453,192.695 285.500 C 191.307 288.447,190.269 288.702,190.426 286.058 C 190.544 284.055,190.465 283.600,190.000 283.600 C 189.752 283.600,189.600 285.733,189.600 289.200 M203.200 289.179 L 203.200 294.800 205.171 294.800 C 208.020 294.800,209.781 291.541,207.932 289.692 C 207.575 289.335,207.593 288.833,208.010 287.569 C 208.858 285.000,208.045 283.839,205.287 283.679 L 203.200 283.558 203.200 289.179 M217.830 288.100 C 217.439 290.575,217.026 293.095,216.910 293.700 C 216.640 295.114,217.479 295.171,218.010 293.775 C 218.538 292.385,220.926 292.481,221.128 293.900 C 221.266 294.876,222.400 295.167,222.400 294.227 C 222.400 293.911,222.041 291.526,221.602 288.927 C 221.163 286.327,220.803 284.065,220.802 283.900 C 220.801 283.735,220.291 283.600,219.670 283.600 L 218.539 283.600 217.830 288.100 M231.200 289.200 C 231.200 292.667,231.352 294.800,231.600 294.800 C 231.837 294.800,232.000 293.341,232.000 291.224 C 232.000 285.844,232.689 286.115,234.225 292.100 C 234.768 294.212,235.080 294.800,235.659 294.800 C 236.345 294.800,236.400 294.384,236.400 289.200 C 236.400 284.561,236.300 283.600,235.817 283.600 C 235.366 283.600,235.207 284.304,235.117 286.700 L 235.000 289.800 234.337 288.400 C 233.972 287.630,233.470 286.235,233.221 285.300 C 232.883 284.032,232.568 283.600,231.984 283.600 C 231.243 283.600,231.200 283.905,231.200 289.200 M245.200 289.200 L 245.200 294.800 247.177 294.800 C 249.987 294.800,250.400 294.082,250.400 289.200 C 250.400 284.318,249.987 283.600,247.177 283.600 L 245.200 283.600 245.200 289.200 M151.920 286.752 C 151.742 289.498,149.869 289.571,149.674 286.840 C 149.539 284.952,149.976 284.364,151.264 284.701 C 151.914 284.871,152.020 285.203,151.920 286.752 M165.371 285.029 C 166.271 285.929,166.272 292.471,165.372 293.371 C 163.892 294.851,163.200 293.543,163.200 289.266 C 163.200 284.680,163.818 283.475,165.371 285.029 M248.894 285.371 C 249.248 285.888,249.300 292.074,248.957 292.967 C 248.813 293.342,248.243 293.600,247.557 293.600 L 246.400 293.600 246.400 289.233 C 246.400 284.776,246.593 284.233,248.000 284.730 C 248.330 284.846,248.732 285.135,248.894 285.371 M207.026 285.763 C 207.502 287.659,205.309 289.504,204.643 287.767 C 204.320 286.926,204.334 285.400,204.667 285.067 C 205.334 284.399,206.792 284.829,207.026 285.763 M220.347 288.455 C 220.826 291.174,220.720 291.600,219.564 291.600 C 218.451 291.600,218.264 290.781,218.795 288.224 C 219.392 285.351,219.811 285.413,220.347 288.455 M207.000 291.600 C 207.000 293.261,206.916 293.410,205.914 293.525 C 204.677 293.668,204.108 292.417,204.571 290.575 C 205.073 288.574,207.000 289.387,207.000 291.600 " stroke="none" fill="#121212" fill-rule="evenodd"></path><path id="path1" d="M193.800 96.431 C 188.074 97.410,186.346 97.755,183.600 98.468 C 154.914 105.918,133.335 128.898,126.946 158.800 C 125.152 167.197,125.152 180.803,126.946 189.200 C 133.735 220.971,156.629 243.865,188.400 250.654 C 196.797 252.448,210.403 252.448,218.800 250.654 C 250.535 243.873,273.473 220.935,280.254 189.200 C 282.048 180.803,282.048 167.197,280.254 158.800 C 273.473 127.065,250.535 104.127,218.800 97.346 C 212.794 96.063,198.926 95.555,193.800 96.431 M216.400 97.386 C 267.731 106.772,295.844 160.816,273.627 207.400 C 250.769 255.329,187.759 266.603,149.463 229.616 C 118.254 199.474,118.254 148.526,149.463 118.384 C 162.303 105.982,178.276 98.554,196.200 96.649 C 199.592 96.288,213.089 96.781,216.400 97.386 M176.846 134.233 L 176.000 135.308 176.000 174.472 L 176.000 213.636 176.982 214.618 C 178.992 216.629,181.716 215.233,182.187 211.950 C 182.964 206.536,182.207 135.668,181.360 134.529 C 180.152 132.904,178.002 132.763,176.846 134.233 M180.784 134.475 C 181.594 135.344,181.600 135.655,181.600 174.350 L 181.600 213.348 180.730 214.274 C 179.580 215.498,178.252 215.447,177.223 214.139 L 176.388 213.077 176.494 173.956 C 176.599 135.365,176.611 134.826,177.400 134.230 C 178.541 133.367,179.840 133.462,180.784 134.475 M165.494 152.100 C 165.132 152.375,164.648 153.107,164.418 153.726 C 163.825 155.323,163.847 193.442,164.442 195.149 C 165.242 197.445,168.111 198.002,169.571 196.146 C 170.871 194.493,170.871 154.307,169.571 152.654 C 168.653 151.487,166.659 151.216,165.494 152.100 M187.782 152.582 L 186.800 153.564 186.800 174.400 L 186.800 195.236 187.782 196.218 C 189.265 197.701,191.602 197.589,192.964 195.969 L 194.000 194.739 194.000 174.339 L 194.000 153.938 192.831 152.769 C 191.303 151.241,189.201 151.163,187.782 152.582 M209.782 152.582 L 208.800 153.564 208.800 174.553 L 208.800 195.542 209.854 196.371 C 211.317 197.522,213.381 197.456,214.618 196.218 L 215.600 195.236 215.600 174.400 L 215.600 153.564 214.618 152.582 C 213.282 151.246,211.118 151.246,209.782 152.582 M232.982 152.582 L 232.000 153.564 232.000 174.328 C 232.000 194.729,232.015 195.111,232.829 196.146 C 233.943 197.562,236.042 197.595,237.418 196.218 L 238.400 195.236 238.400 174.400 L 238.400 153.564 237.418 152.582 C 236.799 151.963,235.979 151.600,235.200 151.600 C 234.421 151.600,233.601 151.963,232.982 152.582 M169.125 152.816 L 170.000 153.631 170.000 174.327 C 170.000 197.267,170.052 196.800,167.509 196.800 C 164.670 196.800,164.800 197.869,164.800 174.470 C 164.800 155.484,164.864 153.393,165.462 152.731 C 166.338 151.764,168.037 151.803,169.125 152.816 M192.035 152.513 C 193.560 153.684,193.600 154.251,193.600 174.715 L 193.600 194.683 192.619 195.742 C 191.380 197.079,189.435 197.161,188.126 195.930 L 187.200 195.061 187.200 174.584 C 187.200 154.475,187.215 154.089,188.029 153.054 C 188.939 151.897,190.890 151.634,192.035 152.513 M214.274 152.870 L 215.200 153.739 215.200 174.344 L 215.200 194.948 214.330 195.874 C 213.231 197.044,211.268 197.095,210.075 195.984 L 209.200 195.169 209.200 174.400 L 209.200 153.631 210.075 152.816 C 211.221 151.748,213.106 151.772,214.274 152.870 M237.038 152.842 C 237.767 153.647,237.800 154.590,237.800 174.400 C 237.800 194.210,237.767 195.153,237.038 195.958 C 236.151 196.938,234.541 197.032,233.400 196.170 C 232.108 195.194,231.937 154.696,233.219 153.067 C 234.253 151.752,235.961 151.652,237.038 152.842 M200.146 162.068 C 198.558 162.837,198.400 163.975,198.400 174.650 L 198.400 184.862 199.569 186.031 C 200.842 187.303,201.449 187.434,202.937 186.756 C 204.655 185.973,204.800 184.983,204.800 174.036 L 204.800 163.709 203.745 162.655 C 202.640 161.549,201.576 161.375,200.146 162.068 M221.631 162.636 L 220.400 163.671 220.400 174.266 L 220.400 184.862 221.569 186.031 C 222.873 187.335,223.893 187.483,225.576 186.612 C 227.375 185.682,227.600 184.324,227.600 174.400 C 227.600 164.476,227.375 163.118,225.576 162.188 C 223.956 161.350,223.034 161.455,221.631 162.636 M244.810 162.390 C 243.202 163.998,243.020 184.414,244.600 185.964 C 246.060 187.397,247.429 187.432,248.790 186.072 L 250.000 184.862 250.000 174.285 C 250.000 164.190,249.962 163.660,249.171 162.654 C 248.137 161.339,245.991 161.209,244.810 162.390 M203.700 163.279 C 204.794 164.544,204.761 184.266,203.662 185.622 C 202.768 186.727,200.677 186.848,199.681 185.853 C 198.906 185.079,198.417 166.992,199.100 164.354 C 199.701 162.031,202.130 161.464,203.700 163.279 M226.200 163.236 C 227.511 164.524,227.431 184.347,226.109 185.668 C 224.912 186.866,222.512 186.826,221.514 185.593 C 220.666 184.546,220.412 165.072,221.226 163.551 C 222.120 161.881,224.657 161.720,226.200 163.236 M248.784 162.875 C 249.562 163.710,249.600 164.237,249.600 174.186 C 249.600 185.941,249.503 186.400,247.006 186.400 C 244.172 186.400,244.000 185.698,244.000 174.128 L 244.000 163.964 244.982 162.982 C 246.198 161.766,247.711 161.723,248.784 162.875 M154.955 167.009 C 153.448 168.515,153.603 180.790,155.144 182.036 C 156.351 183.012,158.050 183.012,159.256 182.035 C 160.182 181.285,160.200 181.138,160.200 174.400 C 160.200 167.662,160.182 167.515,159.256 166.765 C 157.929 165.690,156.174 165.790,154.955 167.009 M254.982 166.982 C 254.021 167.943,254.000 168.100,254.000 174.400 C 254.000 180.700,254.021 180.857,254.982 181.818 C 256.242 183.078,257.977 183.101,259.130 181.874 C 260.512 180.403,260.466 168.178,259.074 166.870 C 257.846 165.716,256.203 165.761,254.982 166.982 M159.171 167.454 C 160.428 169.052,160.428 179.748,159.171 181.346 C 158.057 182.762,156.343 182.762,155.229 181.346 C 154.476 180.388,154.400 179.755,154.400 174.400 C 154.400 167.734,154.867 166.400,157.200 166.400 C 157.957 166.400,158.621 166.755,159.171 167.454 M258.800 167.200 C 261.095 169.495,259.673 182.400,257.126 182.400 C 254.808 182.400,254.400 181.211,254.400 174.456 C 254.400 166.833,255.923 164.323,258.800 167.200 M163.326 283.194 C 161.916 283.776,161.600 284.900,161.600 289.329 C 161.600 294.332,162.111 295.360,164.600 295.360 C 167.105 295.360,167.600 294.344,167.600 289.200 C 167.600 283.763,166.317 281.960,163.326 283.194 M176.926 283.194 C 175.023 283.980,174.292 292.390,175.948 294.436 C 177.776 296.692,181.371 295.020,181.120 292.031 C 180.971 290.259,179.495 289.916,179.262 291.600 C 179.096 292.796,178.447 293.676,177.955 293.372 C 177.548 293.121,177.464 285.469,177.863 285.070 C 178.274 284.659,179.200 285.614,179.200 286.449 C 179.200 286.983,179.488 287.200,180.200 287.200 C 181.036 287.200,181.200 287.010,181.200 286.044 C 181.200 283.871,178.939 282.363,176.926 283.194 M148.000 289.200 L 148.000 295.200 149.000 295.200 C 149.925 295.200,150.000 295.058,150.006 293.300 C 150.009 292.255,150.169 291.152,150.361 290.849 C 150.942 289.932,151.600 290.751,151.600 292.391 C 151.600 294.565,151.936 295.200,153.089 295.200 C 154.088 295.200,154.092 295.185,153.835 292.500 C 153.693 291.015,153.605 289.350,153.640 288.800 C 153.967 283.695,153.676 283.200,150.351 283.200 L 148.000 283.200 148.000 289.200 M166.218 284.182 C 167.527 285.491,167.711 292.481,166.476 294.006 C 164.160 296.865,162.000 294.515,162.000 289.138 C 162.000 284.957,162.770 283.200,164.600 283.200 C 164.950 283.200,165.678 283.642,166.218 284.182 M179.818 284.182 C 180.910 285.274,181.133 286.800,180.200 286.800 C 179.870 286.800,179.600 286.476,179.600 286.080 C 179.600 284.603,178.424 284.033,177.429 285.029 C 176.529 285.929,176.528 292.471,177.428 293.371 C 178.287 294.230,179.600 293.514,179.600 292.186 C 179.600 291.576,179.829 291.200,180.200 291.200 C 181.040 291.200,180.964 292.908,180.076 294.006 C 177.728 296.905,175.800 294.715,175.800 289.150 C 175.800 283.488,177.286 281.650,179.818 284.182 M188.975 283.720 C 188.865 284.006,188.826 286.661,188.888 289.620 L 189.000 295.000 190.100 295.127 C 191.176 295.250,191.200 295.207,191.200 293.160 C 191.200 290.828,191.489 290.869,192.449 293.333 C 192.952 294.626,193.334 295.028,194.149 295.127 C 195.450 295.283,195.450 295.276,194.055 291.543 L 192.913 288.485 194.056 286.153 C 195.447 283.316,195.453 283.200,194.210 283.200 C 193.423 283.200,193.033 283.590,192.310 285.100 L 191.400 287.000 191.278 285.100 C 191.155 283.179,189.552 282.218,188.975 283.720 M202.975 283.720 C 202.865 284.006,202.826 286.661,202.888 289.620 L 203.000 295.000 205.144 295.122 C 208.034 295.287,208.800 294.596,208.800 291.818 C 208.800 290.686,208.603 289.563,208.363 289.323 C 208.047 289.007,208.047 288.660,208.363 288.069 C 209.045 286.794,208.892 284.608,208.069 283.862 C 207.159 283.039,203.278 282.931,202.975 283.720 M217.990 284.226 C 217.776 284.790,217.596 285.645,217.592 286.126 C 217.588 286.607,217.324 288.440,217.006 290.200 C 216.206 294.626,216.230 295.200,217.210 295.200 C 217.712 295.200,218.169 294.809,218.411 294.172 C 218.912 292.853,220.535 292.943,220.728 294.300 C 220.817 294.931,221.127 295.200,221.761 295.200 C 223.035 295.200,223.137 294.988,222.784 293.085 C 222.612 292.158,222.265 290.050,222.013 288.400 C 221.177 282.922,221.297 283.200,219.758 283.200 C 218.647 283.200,218.305 283.399,217.990 284.226 M230.489 289.075 C 230.598 294.876,230.619 295.003,231.500 295.128 C 232.356 295.249,232.400 295.126,232.400 292.585 C 232.400 290.375,232.504 289.954,233.000 290.145 C 233.724 290.422,233.782 289.637,233.142 288.231 C 232.366 286.529,232.000 287.488,232.000 291.224 C 232.000 293.341,231.837 294.800,231.600 294.800 C 231.352 294.800,231.200 292.667,231.200 289.200 C 231.200 283.905,231.243 283.600,231.984 283.600 C 232.568 283.600,232.883 284.032,233.221 285.300 C 233.470 286.235,233.972 287.630,234.337 288.400 L 235.000 289.800 235.117 286.700 C 235.207 284.304,235.366 283.600,235.817 283.600 C 236.300 283.600,236.400 284.561,236.400 289.200 C 236.400 294.435,236.351 294.800,235.640 294.800 C 235.057 294.800,234.767 294.328,234.395 292.778 C 234.128 291.667,233.820 290.847,233.710 290.957 C 232.954 291.713,234.540 295.200,235.640 295.200 L 236.800 295.200 236.800 289.200 L 236.800 283.200 235.800 283.200 C 234.862 283.200,234.799 283.330,234.788 285.300 C 234.775 287.573,234.142 287.203,233.618 284.614 C 233.403 283.554,233.182 283.384,231.875 283.275 L 230.378 283.150 230.489 289.075 M244.800 289.200 L 244.800 295.200 247.177 295.200 C 250.488 295.200,250.800 294.684,250.800 289.200 C 250.800 283.716,250.488 283.200,247.177 283.200 L 244.800 283.200 244.800 289.200 M152.977 284.489 C 153.727 285.559,153.761 286.499,153.114 288.288 C 152.732 289.343,152.732 289.800,153.114 290.411 C 153.809 291.524,153.756 294.800,153.043 294.800 C 152.326 294.800,152.000 293.923,152.000 291.994 C 152.000 290.808,151.817 290.396,151.204 290.201 C 149.933 289.798,149.600 290.302,149.600 292.624 C 149.600 294.292,149.460 294.800,149.000 294.800 C 148.495 294.800,148.400 293.911,148.400 289.200 L 148.400 283.600 150.377 283.600 C 151.967 283.600,152.477 283.774,152.977 284.489 M190.456 284.100 C 190.487 284.375,190.473 285.256,190.426 286.058 C 190.269 288.702,191.307 288.447,192.695 285.500 C 193.188 284.453,193.864 283.600,194.201 283.600 C 194.681 283.600,194.548 284.122,193.580 286.039 C 192.245 288.684,192.229 288.393,193.961 292.731 C 194.717 294.623,194.738 294.846,194.146 294.731 C 193.779 294.659,193.231 293.880,192.926 293.001 C 191.899 290.031,190.145 290.145,190.432 293.164 C 190.540 294.301,190.408 294.800,190.000 294.800 C 189.752 294.800,189.600 292.667,189.600 289.200 C 189.600 285.733,189.752 283.600,190.000 283.600 C 190.220 283.600,190.425 283.825,190.456 284.100 M207.965 284.857 C 208.474 285.767,208.480 286.145,208.010 287.569 C 207.593 288.833,207.575 289.335,207.932 289.692 C 209.781 291.541,208.020 294.800,205.171 294.800 L 203.200 294.800 203.200 289.179 L 203.200 283.558 205.287 283.679 C 207.064 283.782,207.461 283.957,207.965 284.857 M220.802 283.900 C 220.803 284.065,221.163 286.327,221.602 288.927 C 222.041 291.526,222.400 293.911,222.400 294.227 C 222.400 295.167,221.266 294.876,221.128 293.900 C 220.926 292.481,218.538 292.385,218.010 293.775 C 217.479 295.171,216.640 295.114,216.910 293.700 C 217.026 293.095,217.439 290.575,217.830 288.100 L 218.539 283.600 219.670 283.600 C 220.291 283.600,220.801 283.735,220.802 283.900 M249.777 284.489 C 250.235 285.143,250.400 286.388,250.400 289.200 C 250.400 294.082,249.987 294.800,247.177 294.800 L 245.200 294.800 245.200 289.200 L 245.200 283.600 247.177 283.600 C 248.767 283.600,249.277 283.774,249.777 284.489 M150.018 284.789 C 149.026 285.402,149.682 288.600,150.800 288.600 C 151.705 288.600,151.811 288.425,151.920 286.752 C 152.043 284.852,151.247 284.029,150.018 284.789 M163.680 284.880 C 162.796 285.764,163.042 293.087,163.972 293.585 C 165.440 294.371,166.000 293.159,166.000 289.200 C 166.000 285.067,165.124 283.436,163.680 284.880 M246.900 284.692 C 246.541 284.817,246.400 286.100,246.400 289.233 L 246.400 293.600 247.557 293.600 C 249.027 293.600,249.201 293.116,249.194 289.067 C 249.187 285.206,248.606 284.097,246.900 284.692 M165.600 289.200 C 165.600 292.974,164.928 294.535,164.028 292.852 C 162.908 290.759,163.770 284.179,165.028 285.223 C 165.444 285.569,165.600 286.651,165.600 289.200 M204.667 285.067 C 204.334 285.400,204.320 286.926,204.643 287.767 C 205.309 289.504,207.502 287.659,207.026 285.763 C 206.792 284.829,205.334 284.399,204.667 285.067 M151.600 286.576 C 151.600 288.068,150.916 288.836,150.372 287.955 C 150.186 287.654,150.103 287.046,150.187 286.604 C 150.272 286.162,150.354 285.665,150.370 285.500 C 150.479 284.404,151.600 285.386,151.600 286.576 M206.325 286.469 C 206.178 287.962,205.399 288.404,205.078 287.178 C 204.788 286.067,205.134 285.200,205.868 285.200 C 206.282 285.200,206.414 285.567,206.325 286.469 M248.557 285.833 C 249.447 288.152,248.619 293.523,247.440 293.071 C 246.779 292.817,246.448 286.086,247.067 285.467 C 247.539 284.994,248.308 285.182,248.557 285.833 M218.795 288.224 C 218.264 290.781,218.451 291.600,219.564 291.600 C 220.720 291.600,220.826 291.174,220.347 288.455 C 219.811 285.413,219.392 285.351,218.795 288.224 M220.000 289.633 C 220.000 290.620,219.830 291.210,219.570 291.123 C 219.334 291.045,219.154 290.850,219.170 290.690 C 219.187 290.531,219.200 289.860,219.200 289.200 C 219.200 288.540,219.380 288.000,219.600 288.000 C 219.820 288.000,220.000 288.735,220.000 289.633 M204.571 290.575 C 204.108 292.417,204.677 293.668,205.914 293.525 C 206.916 293.410,207.000 293.261,207.000 291.600 C 207.000 289.387,205.073 288.574,204.571 290.575 M206.726 291.506 C 206.815 292.430,206.658 292.879,206.185 293.061 C 205.386 293.368,204.899 292.701,205.035 291.486 C 205.089 290.999,205.148 290.452,205.167 290.271 C 205.267 289.279,206.613 290.346,206.726 291.506 " stroke="none" fill="#535353" fill-rule="evenodd"></path><path id="path2" d="M177.400 134.230 C 176.611 134.826,176.599 135.365,176.494 173.956 L 176.388 213.077 177.223 214.139 C 178.252 215.447,179.580 215.498,180.730 214.274 L 181.600 213.348 181.600 174.350 C 181.600 135.655,181.594 135.344,180.784 134.475 C 179.840 133.462,178.541 133.367,177.400 134.230 M180.577 134.889 C 181.677 136.460,181.506 212.894,180.400 214.000 C 179.453 214.947,178.829 215.002,177.776 214.232 C 176.755 213.485,176.533 135.885,177.549 134.661 C 178.325 133.727,179.843 133.841,180.577 134.889 M165.462 152.731 C 164.864 153.393,164.800 155.484,164.800 174.470 C 164.800 197.869,164.670 196.800,167.509 196.800 C 170.052 196.800,170.000 197.267,170.000 174.327 L 170.000 153.631 169.125 152.816 C 168.037 151.803,166.338 151.764,165.462 152.731 M188.029 153.054 C 187.215 154.089,187.200 154.475,187.200 174.584 L 187.200 195.061 188.126 195.930 C 189.435 197.161,191.380 197.079,192.619 195.742 L 193.600 194.683 193.600 174.715 C 193.600 160.302,193.471 154.504,193.135 153.874 C 191.989 151.723,189.403 151.307,188.029 153.054 M210.075 152.816 L 209.200 153.631 209.200 174.400 L 209.200 195.169 210.075 195.984 C 211.268 197.095,213.231 197.044,214.330 195.874 L 215.200 194.948 215.200 174.344 L 215.200 153.739 214.274 152.870 C 213.106 151.772,211.221 151.748,210.075 152.816 M233.219 153.067 C 231.937 154.696,232.108 195.194,233.400 196.170 C 234.541 197.032,236.151 196.938,237.038 195.958 C 237.767 195.153,237.800 194.210,237.800 174.400 C 237.800 154.590,237.767 153.647,237.038 152.842 C 235.961 151.652,234.253 151.752,233.219 153.067 M168.977 153.289 C 169.521 154.065,169.600 156.745,169.600 174.400 C 169.600 192.055,169.521 194.735,168.977 195.511 C 168.240 196.564,166.950 196.660,165.931 195.738 C 164.857 194.765,164.791 154.315,165.862 153.131 C 166.762 152.137,168.222 152.211,168.977 153.289 M191.911 153.023 L 192.800 153.645 192.800 174.291 C 192.800 197.036,192.870 196.400,190.354 196.400 C 187.529 196.400,187.600 196.967,187.600 174.450 C 187.600 154.262,187.600 154.251,188.470 153.326 C 189.482 152.249,190.658 152.145,191.911 153.023 M214.000 153.200 C 214.779 153.979,214.800 154.533,214.800 174.400 C 214.800 197.001,214.871 196.400,212.200 196.400 C 209.529 196.400,209.600 197.001,209.600 174.400 C 209.600 151.799,209.529 152.400,212.200 152.400 C 212.750 152.400,213.560 152.760,214.000 153.200 M236.500 152.957 C 237.151 153.451,237.200 154.953,237.200 174.400 C 237.200 197.254,237.292 196.352,234.949 196.387 C 232.992 196.417,233.000 196.506,233.000 174.306 C 233.000 154.207,233.025 153.517,233.776 152.968 C 234.735 152.267,235.586 152.263,236.500 152.957 M200.425 162.509 C 198.931 163.262,198.739 164.866,198.875 175.440 C 199.014 186.244,199.086 186.533,201.643 186.533 C 204.278 186.533,204.400 185.998,204.400 174.400 C 204.400 162.441,203.846 160.785,200.425 162.509 M222.526 162.394 C 220.925 163.055,220.800 163.932,220.800 174.529 C 220.800 186.114,220.879 186.436,223.723 186.517 C 226.906 186.607,227.000 186.258,227.000 174.400 C 227.000 164.551,226.959 163.982,226.200 163.236 C 225.213 162.267,223.684 161.916,222.526 162.394 M244.982 162.982 L 244.000 163.964 244.000 174.128 C 244.000 185.698,244.172 186.400,247.006 186.400 C 249.503 186.400,249.600 185.941,249.600 174.186 C 249.600 164.237,249.562 163.710,248.784 162.875 C 247.711 161.723,246.198 161.766,244.982 162.982 M248.400 163.200 C 249.492 164.292,249.648 183.582,248.577 185.111 C 247.778 186.252,245.799 186.320,245.214 185.226 C 244.475 183.845,244.669 163.789,245.429 163.029 C 246.285 162.172,247.439 162.239,248.400 163.200 M203.644 164.000 C 204.168 165.899,204.032 183.714,203.485 184.800 C 202.918 185.925,201.106 186.352,200.176 185.580 C 199.388 184.926,199.316 164.044,200.098 163.262 C 200.989 162.371,203.329 162.858,203.644 164.000 M225.771 163.429 C 226.310 163.968,226.400 165.531,226.400 174.400 C 226.400 185.893,226.376 186.000,223.794 186.000 C 221.311 186.000,221.200 185.497,221.200 174.242 C 221.200 165.518,221.283 164.171,221.862 163.531 C 222.680 162.627,224.912 162.569,225.771 163.429 M155.229 167.454 C 154.476 168.412,154.400 169.045,154.400 174.400 C 154.400 181.066,154.867 182.400,157.200 182.400 C 159.533 182.400,160.000 181.066,160.000 174.400 C 160.000 167.734,159.533 166.400,157.200 166.400 C 156.443 166.400,155.779 166.755,155.229 167.454 M255.270 167.326 C 253.892 168.793,253.937 180.225,255.326 181.530 C 258.332 184.355,259.600 182.239,259.600 174.400 C 259.600 166.586,258.166 164.243,255.270 167.326 M158.240 167.106 C 160.412 168.556,160.155 181.116,157.939 181.819 C 155.503 182.593,154.800 180.921,154.800 174.355 C 154.800 168.383,155.300 166.812,157.200 166.812 C 157.530 166.812,157.998 166.944,158.240 167.106 M258.577 167.689 C 260.345 170.213,259.192 182.000,257.177 182.000 C 255.160 182.000,254.800 180.848,254.800 174.400 C 254.800 168.933,254.871 168.329,255.600 167.600 C 256.649 166.551,257.804 166.585,258.577 167.689 " stroke="none" fill="#bdbdbd" fill-rule="evenodd"></path><path id="path3" d="M177.549 134.661 C 176.533 135.885,176.755 213.485,177.776 214.232 C 178.829 215.002,179.453 214.947,180.400 214.000 C 181.506 212.894,181.677 136.460,180.577 134.889 C 179.843 133.841,178.325 133.727,177.549 134.661 M165.862 153.131 C 164.791 154.315,164.857 194.765,165.931 195.738 C 166.950 196.660,168.240 196.564,168.977 195.511 C 169.521 194.735,169.600 192.055,169.600 174.400 C 169.600 156.745,169.521 154.065,168.977 153.289 C 168.222 152.211,166.762 152.137,165.862 153.131 M188.470 153.326 C 187.600 154.251,187.600 154.262,187.600 174.450 C 187.600 196.967,187.529 196.400,190.354 196.400 C 192.870 196.400,192.800 197.036,192.800 174.291 L 192.800 153.645 191.911 153.023 C 190.658 152.145,189.482 152.249,188.470 153.326 M210.400 153.200 C 209.621 153.979,209.600 154.533,209.600 174.400 C 209.600 197.001,209.529 196.400,212.200 196.400 C 214.871 196.400,214.800 197.001,214.800 174.400 C 214.800 151.799,214.871 152.400,212.200 152.400 C 211.650 152.400,210.840 152.760,210.400 153.200 M233.776 152.968 C 233.025 153.517,233.000 154.207,233.000 174.306 C 233.000 196.506,232.992 196.417,234.949 196.387 C 237.292 196.352,237.200 197.254,237.200 174.400 C 237.200 154.953,237.151 153.451,236.500 152.957 C 235.586 152.263,234.735 152.267,233.776 152.968 M245.429 163.029 C 244.669 163.789,244.475 183.845,245.214 185.226 C 245.799 186.320,247.778 186.252,248.577 185.111 C 249.648 183.582,249.492 164.292,248.400 163.200 C 247.439 162.239,246.285 162.172,245.429 163.029 M200.098 163.262 C 199.316 164.044,199.388 184.926,200.176 185.580 C 201.106 186.352,202.918 185.925,203.485 184.800 C 204.032 183.714,204.168 165.899,203.644 164.000 C 203.329 162.858,200.989 162.371,200.098 163.262 M221.862 163.531 C 221.283 164.171,221.200 165.518,221.200 174.242 C 221.200 185.497,221.311 186.000,223.794 186.000 C 226.376 186.000,226.400 185.893,226.400 174.400 C 226.400 165.531,226.310 163.968,225.771 163.429 C 224.912 162.569,222.680 162.627,221.862 163.531 M156.160 167.106 C 153.988 168.556,154.245 181.116,156.461 181.819 C 158.897 182.593,159.600 180.921,159.600 174.355 C 159.600 168.383,159.100 166.812,157.200 166.812 C 156.870 166.812,156.402 166.944,156.160 167.106 M255.600 167.600 C 253.387 169.813,254.722 182.000,257.177 182.000 C 258.832 182.000,259.200 180.617,259.200 174.400 C 259.200 167.114,258.122 165.078,255.600 167.600 " stroke="none" fill="#ffffff" fill-rule="evenodd"></path><path id="path4" d="M0.000 200.000 L 0.000 400.000 200.000 400.000 L 400.000 400.000 400.000 200.000 L 400.000 0.000 200.000 0.000 L 0.000 0.000 0.000 200.000 M214.035 96.566 C 247.934 101.664,273.099 125.314,280.254 158.800 C 282.048 167.197,282.048 180.803,280.254 189.200 C 273.473 220.935,250.535 243.873,218.800 250.654 C 210.403 252.448,196.797 252.448,188.400 250.654 C 156.629 243.865,133.735 220.971,126.946 189.200 C 125.152 180.803,125.152 167.197,126.946 158.800 C 133.335 128.898,154.914 105.918,183.600 98.468 C 186.346 97.755,188.074 97.410,193.800 96.431 C 197.143 95.860,209.905 95.945,214.035 96.566 M166.900 284.061 C 167.472 284.738,167.600 285.676,167.600 289.200 C 167.600 294.344,167.105 295.360,164.600 295.360 C 162.111 295.360,161.600 294.332,161.600 289.329 C 161.600 283.239,164.101 280.753,166.900 284.061 M180.500 284.061 C 181.611 285.374,181.436 287.200,180.200 287.200 C 179.488 287.200,179.200 286.983,179.200 286.449 C 179.200 285.614,178.274 284.659,177.863 285.070 C 177.464 285.469,177.548 293.121,177.955 293.372 C 178.447 293.676,179.096 292.796,179.262 291.600 C 179.495 289.916,180.971 290.259,181.120 292.031 C 181.371 295.020,177.776 296.692,175.948 294.436 C 175.086 293.371,174.844 285.812,175.626 284.351 C 176.529 282.664,179.184 282.506,180.500 284.061 M153.242 283.851 C 153.726 284.434,153.834 285.772,153.640 288.800 C 153.605 289.350,153.693 291.015,153.835 292.500 C 154.092 295.185,154.088 295.200,153.089 295.200 C 151.936 295.200,151.600 294.565,151.600 292.391 C 151.600 290.751,150.942 289.932,150.361 290.849 C 150.169 291.152,150.009 292.255,150.006 293.300 C 150.000 295.058,149.925 295.200,149.000 295.200 L 148.000 295.200 148.000 289.200 L 148.000 283.200 150.351 283.200 C 152.034 283.200,152.855 283.385,153.242 283.851 M191.278 285.100 L 191.400 287.000 192.310 285.100 C 193.033 283.590,193.423 283.200,194.210 283.200 C 195.453 283.200,195.447 283.316,194.056 286.153 L 192.913 288.485 194.055 291.543 C 195.450 295.276,195.450 295.283,194.149 295.127 C 193.334 295.028,192.952 294.626,192.449 293.333 C 191.489 290.869,191.200 290.828,191.200 293.160 C 191.200 295.207,191.176 295.250,190.100 295.127 L 189.000 295.000 188.888 289.620 C 188.760 283.479,188.815 283.200,190.166 283.200 C 191.064 283.200,191.168 283.378,191.278 285.100 M208.069 283.862 C 208.892 284.608,209.045 286.794,208.363 288.069 C 208.047 288.660,208.047 289.007,208.363 289.323 C 208.603 289.563,208.800 290.686,208.800 291.818 C 208.800 294.596,208.034 295.287,205.144 295.122 L 203.000 295.000 202.888 289.620 C 202.826 286.661,202.865 284.006,202.975 283.720 C 203.278 282.931,207.159 283.039,208.069 283.862 M221.346 284.300 C 221.461 284.905,221.761 286.750,222.013 288.400 C 222.265 290.050,222.612 292.158,222.784 293.085 C 223.137 294.988,223.035 295.200,221.761 295.200 C 221.127 295.200,220.817 294.931,220.728 294.300 C 220.535 292.943,218.912 292.853,218.411 294.172 C 218.169 294.809,217.712 295.200,217.210 295.200 C 216.230 295.200,216.206 294.626,217.006 290.200 C 217.324 288.440,217.588 286.607,217.592 286.126 C 217.618 283.240,220.845 281.670,221.346 284.300 M233.618 284.614 C 234.142 287.203,234.775 287.573,234.788 285.300 C 234.799 283.330,234.862 283.200,235.800 283.200 L 236.800 283.200 236.800 289.200 L 236.800 295.200 235.628 295.200 C 234.517 295.200,234.426 295.070,233.906 292.726 C 233.138 289.269,232.400 289.205,232.400 292.594 C 232.400 295.125,232.356 295.249,231.500 295.128 C 230.619 295.003,230.598 294.876,230.489 289.075 L 230.378 283.150 231.875 283.275 C 233.182 283.384,233.403 283.554,233.618 284.614 M250.177 284.089 C 250.645 284.757,250.800 286.026,250.800 289.200 C 250.800 294.684,250.488 295.200,247.177 295.200 L 244.800 295.200 244.800 289.200 L 244.800 283.200 247.177 283.200 C 249.181 283.200,249.653 283.340,250.177 284.089 M164.028 285.548 C 162.908 287.641,163.770 294.221,165.028 293.177 C 165.444 292.831,165.600 291.749,165.600 289.200 C 165.600 285.426,164.928 283.865,164.028 285.548 M150.370 285.500 C 150.354 285.665,150.272 286.162,150.187 286.604 C 149.994 287.621,150.571 288.589,151.155 288.228 C 151.853 287.797,151.719 285.200,151.000 285.200 C 150.670 285.200,150.387 285.335,150.370 285.500 M205.070 285.761 C 204.755 286.582,205.228 288.057,205.751 287.886 C 206.462 287.653,206.569 285.200,205.868 285.200 C 205.548 285.200,205.189 285.453,205.070 285.761 M247.067 285.467 C 246.448 286.086,246.779 292.817,247.440 293.071 C 248.428 293.450,248.787 292.459,248.794 289.333 C 248.802 285.618,248.219 284.314,247.067 285.467 M219.200 289.200 C 219.200 289.860,219.187 290.531,219.170 290.690 C 219.154 290.850,219.334 291.045,219.570 291.123 C 219.830 291.210,220.000 290.620,220.000 289.633 C 220.000 288.735,219.820 288.000,219.600 288.000 C 219.380 288.000,219.200 288.540,219.200 289.200 M205.167 290.271 C 205.148 290.452,205.089 290.999,205.035 291.486 C 204.899 292.701,205.386 293.368,206.185 293.061 C 207.109 292.707,206.875 290.259,205.900 290.074 C 205.515 290.001,205.185 290.090,205.167 290.271 " stroke="none" fill="#44d8e6" fill-rule="evenodd"></path></g></svg>